<svg xmlns="http://www.w3.org/2000/svg" height="20" viewBox="0 -960 960 960" width="20"><path d="M481-247q18.74 0 31.87-13.13Q526-273.26 526-292q0-18.74-13.13-31.87Q499.74-337 481-337q-18.74 0-31.87 13.13Q436-310.74 436-292q0 18.74 13.13 31.87Q462.26-247 481-247Zm-35-148h69q0-35.5 6.75-50.5T552-484q35-33 47.5-56.75T612-592q0-53.552-35.75-87.276T484.174-713q-49.296 0-85.735 25.75T347-617l62.211 25q8.789-28 28.043-42.5Q456.507-649 482-649q28 0 46 16t18 42q0 23-15.25 40.5T497-516q-33.5 30.5-42.25 51.25T446-395Zm34 289q-76.907 0-145.065-29.263-68.159-29.263-119.297-80.5Q164.5-267 135.25-335.087 106-403.175 106-480q0-77.907 29.263-145.565 29.263-67.659 80.5-118.797Q267-795.5 335.087-824.75 403.175-854 480-854q77.907 0 145.565 29.263 67.659 29.263 118.797 80.5Q795.5-693 824.75-625.413 854-557.825 854-480q0 76.907-29.263 145.065-29.263 68.159-80.5 119.297Q693-164.5 625.413-135.25 557.825-106 480-106Zm0-67q127.5 0 217.25-89.75T787-480q0-127.5-89.75-217.25T480-787q-127.5 0-217.25 89.75T173-480q0 127.5 89.75 217.25T480-173Zm0-307Z"/></svg>